<svg width="236" height="223" fill="none" xmlns="http://www.w3.org/2000/svg"><path d="M177.88 3H64.634L3 68.397v78.477L64.634 220H177.88L233 154.603V68.397L177.88 3z" stroke="#FF7315" stroke-width="5"/><path d="M162.499 32H79.288L34 79.918v57.501L79.288 191h83.211L203 143.082V79.918L162.499 32z" stroke="#FF7315" stroke-width="5"/><path d="M120.034 138.325a33.183 33.183 0 01-10.172 5.994 33.303 33.303 0 01-11.67 2.089c-3.088 0-6.07-.409-8.946-1.226a34.194 34.194 0 01-8.037-3.361 34.932 34.932 0 01-6.812-5.313 34.954 34.954 0 01-5.313-6.811 35.65 35.65 0 01-3.406-8.038 33.737 33.737 0 01-1.18-8.946c0-3.088.393-6.069 1.18-8.945a34.515 34.515 0 013.406-8.038 34.365 34.365 0 015.313-6.857 33.619 33.619 0 016.811-5.267 33.088 33.088 0 018.038-3.406 32.562 32.562 0 018.946-1.226c4.026 0 7.916.696 11.67 2.088a32.004 32.004 0 0110.172 5.995l-6.902 11.352a19.251 19.251 0 00-6.766-4.723 20.472 20.472 0 00-8.174-1.68c-2.876 0-5.57.545-8.083 1.635-2.513 1.09-4.708 2.573-6.585 4.45-1.877 1.847-3.36 4.042-4.45 6.585-1.09 2.512-1.635 5.192-1.635 8.037 0 2.846.545 5.525 1.635 8.038a21.229 21.229 0 004.45 6.539c1.877 1.877 4.072 3.36 6.585 4.45 2.513 1.09 5.207 1.635 8.083 1.635 2.846 0 5.57-.545 8.174-1.635a19.764 19.764 0 006.766-4.768l6.902 11.353zM140.65 145h-13.032V79.882h45.591v13.033H140.65v13.032h19.527v13.033H140.65V145z" fill="#FF7315"/></svg>