<svg width="236" height="223" viewBox="0 0 236 223" fill="none" xmlns="http://www.w3.org/2000/svg">
<path d="M177.88 3H64.634L3 68.3973V146.874L64.634 220H177.88L233 154.603V68.3973L177.88 3Z" stroke="#FF7315" stroke-width="5"/>
<path d="M162.499 32H79.2876L34 79.9178V137.419L79.2876 191H162.499L203 143.082V79.9178L162.499 32Z" stroke="#FF7315" stroke-width="5"/>
<path d="M120.034 138.325C117.007 140.928 113.616 142.926 109.862 144.319C106.108 145.711 102.218 146.408 98.1919 146.408C95.104 146.408 92.1221 145.999 89.2461 145.182C86.4004 144.395 83.7212 143.274 81.2085 141.821C78.7261 140.338 76.4556 138.567 74.397 136.508C72.3384 134.45 70.5674 132.179 69.084 129.697C67.6309 127.184 66.4956 124.505 65.6782 121.659C64.8911 118.783 64.4976 115.801 64.4976 112.713C64.4976 109.625 64.8911 106.644 65.6782 103.768C66.4956 100.892 67.6309 98.2124 69.084 95.73C70.5674 93.2173 72.3384 90.9316 74.397 88.873C76.4556 86.8145 78.7261 85.0586 81.2085 83.6055C83.7212 82.1221 86.4004 80.9868 89.2461 80.1997C92.1221 79.3823 95.104 78.9736 98.1919 78.9736C102.218 78.9736 106.108 79.6699 109.862 81.0625C113.616 82.4248 117.007 84.4229 120.034 87.0566L113.132 98.4092C111.225 96.3506 108.969 94.7764 106.366 93.6865C103.762 92.5664 101.038 92.0063 98.1919 92.0063C95.3159 92.0063 92.6216 92.5513 90.1089 93.6411C87.5962 94.731 85.4014 96.2144 83.5244 98.0913C81.6475 99.938 80.1641 102.133 79.0742 104.676C77.9844 107.188 77.4395 109.868 77.4395 112.713C77.4395 115.559 77.9844 118.238 79.0742 120.751C80.1641 123.233 81.6475 125.413 83.5244 127.29C85.4014 129.167 87.5962 130.65 90.1089 131.74C92.6216 132.83 95.3159 133.375 98.1919 133.375C101.038 133.375 103.762 132.83 106.366 131.74C108.969 130.62 111.225 129.031 113.132 126.972L120.034 138.325ZM140.65 145H127.618V79.8818H173.209V92.9146H140.65V105.947H160.177V118.98H140.65V145Z" fill="#FF7315"/>
</svg>
